<?xml version="1.0" encoding="UTF-8"?>
<svg id="Layer_1" data-name="Layer 1" xmlns="http://www.w3.org/2000/svg" viewBox="0 0 156.43 174.78">
  <polygon points="76.78 127.26 94.22 116.57 18.14 72.28 18.14 64.96 0 55.96 0 132.74 70.17 174.78 70.17 154.67 18.14 123.46 18.14 93.09 76.78 127.26"/>
  <polygon points="78.22 0 5.07 43.59 23.35 54 78.22 21.94 133.09 54 151.37 43.59 78.22 0"/>
  <polygon points="138.29 64.96 138.29 72.28 138.29 87.91 79.65 53.74 62.22 64.42 138.29 108.72 138.29 123.46 86.26 154.67 86.26 174.78 156.43 132.74 156.43 55.96 138.29 64.96"/>
</svg>