<?xml version="1.0" encoding="UTF-8"?>
<svg id="Layer_1" data-name="Layer 1" xmlns="http://www.w3.org/2000/svg" viewBox="0 0 216.5 90.42">
  <defs>
    <style>
      .cls-1 {
        font-family: TrebuchetMS, 'Trebuchet MS';
        font-size: 42.16px;
        letter-spacing: -.02em;
      }
    </style>
  </defs>
  <g>
    <polygon points="39.72 65.83 48.74 60.3 9.38 37.39 9.38 33.61 0 28.95 0 68.67 36.3 90.42 36.3 80.01 9.38 63.87 9.38 48.15 39.72 65.83"/>
    <polygon points="40.46 0 2.62 22.55 12.07 27.93 40.46 11.35 68.84 27.93 78.3 22.55 40.46 0"/>
    <polygon points="71.54 33.61 71.54 37.39 71.54 45.47 41.2 27.8 32.18 33.33 71.54 56.24 71.54 63.87 44.62 80.01 44.62 90.42 80.92 68.67 80.92 28.95 71.54 33.61"/>
  </g>
  <text class="cls-1" transform="translate(92.45 56.49)"><tspan x="0" y="0">Skybox</tspan></text>
</svg>