<?xml version="1.0" encoding="UTF-8"?>
<svg id="Layer_1" data-name="Layer 1" xmlns="http://www.w3.org/2000/svg" viewBox="0 0 529.11 300.22">
  <defs>
    <style>
      .cls-1 {
        font-family: CambriaMath, 'Cambria Math';
        font-size: 16px;
      }

      .cls-2 {
        letter-spacing: .12em;
      }

      .cls-3 {
        letter-spacing: .15em;
      }

      .cls-4 {
        letter-spacing: .18em;
      }

      .cls-5 {
        letter-spacing: .2em;
      }

      .cls-6 {
        font-family: TrebuchetMS-Bold, 'Trebuchet MS';
        font-size: 23px;
        font-weight: 700;
        letter-spacing: .44em;
      }
    </style>
  </defs>
  <rect y="115.22" width="185" height="185"/>
  <polygon points="439.88 88.53 452.01 81.1 399.08 50.28 399.08 45.2 386.47 38.93 386.47 92.35 435.28 121.6 435.28 107.61 399.08 85.89 399.08 64.76 439.88 88.53"/>
  <polygon points="440.88 0 389.99 30.33 402.7 37.57 440.88 15.26 479.05 37.57 491.77 30.33 440.88 0"/>
  <polygon points="482.67 45.2 482.67 50.28 482.67 61.16 441.88 37.39 429.75 44.82 482.67 75.64 482.67 85.89 446.48 107.61 446.48 121.6 495.29 92.35 495.29 38.93 482.67 45.2"/>
  <text class="cls-6" transform="translate(373.27 146.35)"><tspan x="0" y="0">SKYBOX</tspan></text>
  <text class="cls-1" transform="translate(354.85 162.07) scale(1 .8)"><tspan class="cls-5" x="0" y="0">DIGI</tspan><tspan class="cls-2" x="43.53" y="0">T</tspan><tspan class="cls-5" x="54.95" y="0">AL IM</tspan><tspan class="cls-4" x="111.27" y="0">A</tspan><tspan class="cls-5" x="124.18" y="0">GE</tspan><tspan class="cls-3" x="149.55" y="0">R</tspan><tspan class="cls-5" x="161.94" y="0">Y</tspan></text>
</svg>